<?xml version="1.0" ?><!DOCTYPE svg  PUBLIC '-//W3C//DTD SVG 1.1//EN'  'http://www.w3.org/Graphics/SVG/1.1/DTD/svg11.dtd'><svg height="512px" style="enable-background:new 0 0 512 512;" version="1.1" viewBox="0 0 512 512" width="512px" xml:space="preserve" xmlns="http://www.w3.org/2000/svg" xmlns:xlink="http://www.w3.org/1999/xlink"><g id="file__x2C___html__x2C__web__x2C_"><g id="Layer_107"><g><g><path d="M428.136,454.369H83.865c-2.773,0-5.022-2.246-5.022-5.021V24.26c0-2.775,2.249-5.021,5.022-5.021h344.271      c2.774,0,5.021,2.246,5.021,5.021v425.087C433.156,452.123,430.91,454.369,428.136,454.369z M88.886,444.328h334.228V29.282      H88.886V444.328z"/></g><g><path d="M387.789,179.595H124.215c-9.218,0-16.721-7.555-16.721-16.836V70.473c0-9.282,7.502-16.831,16.721-16.831h263.574      c9.217,0,16.716,7.549,16.716,16.831v92.286C404.505,172.04,397.006,179.595,387.789,179.595z M124.215,63.684      c-3.684,0-6.678,3.047-6.678,6.789v92.286c0,3.746,2.994,6.793,6.678,6.793h263.574c3.677,0,6.674-3.047,6.674-6.793V70.473      c0-3.742-2.997-6.789-6.674-6.789H124.215z"/></g><g><path d="M144.24,149.472h-12.278V138.69h12.278V149.472z M205.788,149.472h-12.137V124.07h-24.849v25.402h-12.278V88.045h12.278      v26.43h24.849v-26.43h12.137V149.472z M259.288,97.644h-17.249v51.828h-12.278V97.644h-17.104v-9.599h46.63V97.644z       M281.947,88.045l15.496,45.332h0.292l15.643-45.332h15.936v61.427h-12.132V131.16l1.168-27.166h-0.293l-16.372,45.478H293.5      l-16.228-45.331l-0.145,0.146l1.167,26.873v18.312h-12.277V88.045H281.947z M352.848,140.019h27.195v9.453h-39.328V88.045      h12.133V140.019z"/></g><g><path d="M390.855,474.006H121.29c-2.773,0-5.022-2.246-5.022-5.021s2.249-5.021,5.022-5.021h269.565      c2.776,0,5.021,2.246,5.021,5.021S393.632,474.006,390.855,474.006z"/></g><g><path d="M366.884,492.762H145.116c-2.772,0-5.021-2.246-5.021-5.021s2.249-5.021,5.021-5.021h221.768      c2.775,0,5.021,2.246,5.021,5.021S369.659,492.762,366.884,492.762z"/></g><g><path d="M210.461,364.818c-1.548,0-3.096-0.568-4.311-1.717l-57.125-54.01c-0.042-0.045-0.088-0.084-0.13-0.125      c-0.539-0.533-0.962-1.145-1.269-1.793c0,0,0,0-0.003-0.004l0,0c-0.397-0.848-0.594-1.76-0.594-2.672c0-0.004,0-0.004,0-0.004      s0,0,0-0.004c0-0.912,0.199-1.824,0.6-2.67c0.3-0.635,0.712-1.229,1.236-1.758c0.053-0.051,0.105-0.1,0.159-0.15l57.122-54.151      c2.51-2.387,6.483-2.282,8.868,0.237c2.385,2.513,2.279,6.486-0.237,8.869l-52.344,49.627l52.339,49.492      c2.519,2.377,2.629,6.352,0.249,8.869C213.789,364.16,212.126,364.818,210.461,364.818z M301.685,364.818      c-1.662,0-3.319-0.654-4.56-1.959c-2.375-2.512-2.274-6.484,0.243-8.869l52.216-49.496l-52.226-49.632      c-2.508-2.387-2.608-6.36-0.222-8.869c2.387-2.513,6.365-2.608,8.874-0.227l56.97,54.146c0.062,0.061,0.121,0.115,0.182,0.176      c0.499,0.504,0.897,1.072,1.188,1.678c0.419,0.865,0.626,1.803,0.626,2.744c0,0.926-0.212,1.857-0.626,2.719      c-0.297,0.619-0.699,1.195-1.207,1.709c-0.056,0.051-0.112,0.1-0.162,0.15L306,363.098      C304.787,364.25,303.235,364.818,301.685,364.818z"/></g></g></g></g><g id="Layer_1"/></svg>