<?xml version="1.0" ?><svg data-name="Layer 1" id="Layer_1" viewBox="0 0 128 128" xmlns="http://www.w3.org/2000/svg"><title/><path d="M18.21,94.72a1,1,0,0,0-1,1,19.43,19.43,0,0,0,19.4,19.41,1,1,0,1,0,0-2,17.43,17.43,0,0,1-17.4-17.41A1,1,0,0,0,18.21,94.72Z"/><path d="M25,95.72a11.59,11.59,0,1,0,23.17,0V52.07L90,37.81V74.28a11.58,11.58,0,1,0,2,6.5V23.09a1,1,0,0,0-.42-.81,1,1,0,0,0-.9-.14l-43.8,15a1,1,0,0,0-.67.94v51.2A11.58,11.58,0,0,0,25,95.72Zm55.38-5.36A9.58,9.58,0,1,1,90,80.78,9.59,9.59,0,0,1,80.41,90.36ZM90,24.49v11.2L48.2,50V38.75ZM46.2,95.72a9.59,9.59,0,1,1-9.59-9.58A9.6,9.6,0,0,1,46.2,95.72Z"/><path d="M63.76,80.78A16.67,16.67,0,0,1,80.41,64.13a1,1,0,0,0,0-2A18.68,18.68,0,0,0,61.76,80.78a1,1,0,0,0,2,0Z"/><path d="M21.4,50.37a1,1,0,0,0,1.05,0c1.16-.72,11.34-7.18,11.86-12.85l0-.24c0-.13,0-.36,0-.5h0v-.09a7,7,0,0,0-6.81-7.19,6.76,6.76,0,0,0-5.62,3.11,6.72,6.72,0,0,0-5.61-3.11A7,7,0,0,0,9.5,36.64v.1c0,.18,0,.36,0,.61l0,.15C10.05,43.19,20.24,49.65,21.4,50.37ZM11.51,37.13c0-.13,0-.27,0-.44a5,5,0,0,1,4.82-5.19A4.88,4.88,0,0,1,21,35.33a1,1,0,0,0,1.94,0,4.9,4.9,0,0,1,4.65-3.83,5,5,0,0,1,4.81,5.19s0,.32,0,.43v.2c-.34,3.76-7.18,8.93-10.4,11-3.21-2.08-10.05-7.25-10.39-11Z"/><path d="M103.12,82.06a1.29,1.29,0,1,0,1.28-1.28A1.28,1.28,0,0,0,103.12,82.06Z"/><path d="M116.71,96a1.28,1.28,0,1,0-1.28,1.28A1.28,1.28,0,0,0,116.71,96Z"/><path d="M91,104a1.28,1.28,0,1,0,1.28,1.28A1.28,1.28,0,0,0,91,104Z"/><path d="M19.49,18a1.28,1.28,0,1,0-1.28,1.28A1.28,1.28,0,0,0,19.49,18Z"/><path d="M100.22,21.25A1.28,1.28,0,1,0,98.94,20,1.28,1.28,0,0,0,100.22,21.25Z"/><path d="M13.06,59.41a1.29,1.29,0,1,0-1.28,1.28A1.28,1.28,0,0,0,13.06,59.41Z"/><path d="M35.07,66.92a1.28,1.28,0,1,0,1.28,1.28A1.28,1.28,0,0,0,35.07,66.92Z"/><path d="M62.41,19.25a1.28,1.28,0,1,0-1.28,1.28A1.28,1.28,0,0,0,62.41,19.25Z"/><path d="M104.52,53.5a1,1,0,0,0,1-1V50.35a1,1,0,0,0-2,0V52.5A1,1,0,0,0,104.52,53.5Z"/><path d="M103.52,61.1a1,1,0,1,0,2,0V59a1,1,0,0,0-2,0Z"/><path d="M106.75,55.73a1,1,0,0,0,1,1h2.15a1,1,0,0,0,0-2h-2.15A1,1,0,0,0,106.75,55.73Z"/><path d="M98.15,55.73a1,1,0,0,0,1,1h2.15a1,1,0,0,0,0-2H99.15A1,1,0,0,0,98.15,55.73Z"/><path d="M112.13,28.79a1,1,0,0,0,1-1V25.64a1,1,0,1,0-2,0v2.15A1,1,0,0,0,112.13,28.79Z"/><path d="M111.13,36.4a1,1,0,1,0,2,0V34.25a1,1,0,0,0-2,0Z"/><path d="M117.51,30h-2.15a1,1,0,1,0,0,2h2.15a1,1,0,0,0,0-2Z"/><path d="M108.9,30h-2.15a1,1,0,1,0,0,2h2.15a1,1,0,0,0,0-2Z"/><path d="M43,17a1,1,0,0,0,1-1V13.87a1,1,0,1,0-2,0V16A1,1,0,0,0,43,17Z"/><path d="M42,24.63a1,1,0,0,0,2,0V22.48a1,1,0,0,0-2,0Z"/><path d="M48.41,20.25a1,1,0,0,0,0-2H46.26a1,1,0,1,0,0,2Z"/><path d="M39.81,20.25a1,1,0,0,0,0-2H37.66a1,1,0,0,0,0,2Z"/><path d="M20.9,73.63a1,1,0,0,0,1-1V70.48a1,1,0,0,0-2,0v2.15A1,1,0,0,0,20.9,73.63Z"/><path d="M19.9,81.23a1,1,0,0,0,2,0V79.08a1,1,0,0,0-2,0Z"/><path d="M26.27,76.85a1,1,0,0,0,0-2H24.13a1,1,0,1,0,0,2Z"/><path d="M17.67,74.85H15.52a1,1,0,1,0,0,2h2.15a1,1,0,0,0,0-2Z"/></svg>