<?xml version="1.0" ?><svg data-name="Layer 1" id="Layer_1" viewBox="0 0 128 128" xmlns="http://www.w3.org/2000/svg"><title/><path d="M46.57,25.94a1,1,0,0,0-.22.33,1.07,1.07,0,0,0,0,.76,1.19,1.19,0,0,0,.22.33l.15.12a.56.56,0,0,0,.17.09.7.7,0,0,0,.19.06l.2,0A1,1,0,0,0,48.2,27a.94.94,0,0,0,0-.76.83.83,0,0,0-.22-.33A1,1,0,0,0,46.57,25.94Z"/><path d="M122.25,63.9a1,1,0,0,0-1,1c0,6.31-9.43,12-23.67,15.61a36.94,36.94,0,0,0,2.21-25.37c4.78-7.31,8.85-15.83,8.86-24.24a7.57,7.57,0,1,0-10-10.65c-6.14-.2-14.74,2.95-24.39,8.94A37.06,37.06,0,0,0,29.16,52.11c-7.5-12.56-10.1-23.24-5.64-27.7a1,1,0,0,0,0-1.41,1,1,0,0,0-1.42,0c-4.63,4.63-3.23,14.18,2.78,25.72-13,4.07-20.13,9.8-20.13,16.18,0,6.55,7.76,12.33,20.19,16.23-.45,1-1,2.41-1.49,3.69s-.89,2.25-1.13,2.77a1,1,0,0,0,.49,1.33,1.06,1.06,0,0,0,.42.09,1,1,0,0,0,.91-.58c.26-.57.68-1.64,1.17-2.88s1.12-2.85,1.56-3.84c1.54.44,3.14.86,4.8,1.24A37.26,37.26,0,0,0,51.44,99.7c-1.84,1.08-3.69,2.1-5.55,3-5.35,2.69-11.57,5.33-17.38,4.75a5.64,5.64,0,0,0,.32-1.89,5.78,5.78,0,1,0-1.35,3.71,1,1,0,0,0,.37.13,18,18,0,0,0,2.32.14c5.73,0,11.56-2.51,16.62-5q3.62-1.83,7.18-4a36.81,36.81,0,0,0,20.11,0c9.51,6,17.83,9.09,24,9.09,3.32,0,6-.91,7.87-2.79,3.36-3.36,3.66-9.38.86-17.39a1,1,0,1,0-1.89.66c2.5,7.13,2.36,12.57-.39,15.32-4.35,4.35-15,2-27.86-5.7A37.25,37.25,0,0,0,96.33,83c16.31-3.78,26.92-10.38,26.92-18A1,1,0,0,0,122.25,63.9Zm-99.2,45.47a3.78,3.78,0,1,1,3.78-3.78A3.78,3.78,0,0,1,23.05,109.37Zm76-44.55a34.8,34.8,0,0,1-4,16.29,134,134,0,0,1-19.72,2.82A172.5,172.5,0,0,0,89,69.25c2.58-3.09,6-7.18,9.24-11.86A35,35,0,0,1,99.08,64.82Zm6-46.19a5.58,5.58,0,1,1-5.58,5.57,5.51,5.51,0,0,1,.44-2.15,1,1,0,0,0,.35-.68A5.56,5.56,0,0,1,105.12,18.63Zm-7.31,3.62a7.4,7.4,0,0,0-.27,1.95,7.6,7.6,0,0,0,9.1,7.43c-.22,7.17-3.54,14.51-7.62,21A37.27,37.27,0,0,0,76.78,30C85.1,25,92.44,22.33,97.81,22.25ZM93.63,46.07H78.1c-1.82-7.19-4.66-12.78-8.1-15.81A35.1,35.1,0,0,1,93.63,46.07ZM63,29.83V46.07H52C54.42,37,58.45,30.65,63,29.83Zm0,18.24V63.46H49.74a75.22,75.22,0,0,1,1.79-15.39Zm2,0H76.47a75.22,75.22,0,0,1,1.79,15.39H65Zm0-2V29.83c4.55.82,8.58,7.16,11,16.24ZM58,30.26c-3.44,3-6.28,8.62-8.1,15.81H34.37A35.1,35.1,0,0,1,58,30.26ZM33.18,48.07H49.43a78,78,0,0,0-1.69,15.39H43.05a1,1,0,0,0,0,2h4.68c0,2.42.12,4.83.34,7.17a1,1,0,0,0,1,.91h.09a1,1,0,0,0,.91-1.08c-.21-2.28-.31-4.63-.33-7H63v11a1,1,0,0,0,2,0v-11H78.27c0,2.35-.12,4.7-.33,7a1,1,0,0,0,2,.18c.22-2.35.32-4.76.34-7.17H85a1,1,0,1,0,0-2H80.26a78,78,0,0,0-1.69-15.39H94.82a34.7,34.7,0,0,1,2.8,6.74A155.16,155.16,0,0,1,87.51,68,171.22,171.22,0,0,1,72.22,84.12c-2.69.14-5.44.21-8.22.21s-5.36-.07-8-.2c-2-1.77-3.88-3.61-5.77-5.49A144.24,144.24,0,0,1,30.52,54.32,35.26,35.26,0,0,1,33.18,48.07ZM29.8,57a148.93,148.93,0,0,0,19.05,23q2,2,4,3.89A133.92,133.92,0,0,1,33,81.11,34.93,34.93,0,0,1,29.8,57Zm-23,7.87c0-5.41,7-10.65,19.09-14.39.77,1.38,1.6,2.79,2.49,4.21a36.9,36.9,0,0,0,2.09,25.79C16.18,76.94,6.75,71.21,6.75,64.9Zm27.6,18.64A140.9,140.9,0,0,0,55.23,86.1c.82.75,1.65,1.48,2.48,2.2s1.86,1.58,2.79,2.35a1,1,0,0,0,1.27-1.55c-.92-.75-1.83-1.52-2.75-2.32l-.63-.55c1.85.06,3.72.1,5.61.1s3.94,0,5.87-.1A122,122,0,0,1,53.68,98.35,35.28,35.28,0,0,1,34.35,83.54ZM74.41,98.32q-3.41-2.16-7-4.77a1,1,0,1,0-1.19,1.6C68.15,96.54,70,97.82,71.79,99A34.52,34.52,0,0,1,64,99.9,35.47,35.47,0,0,1,56.31,99a127.66,127.66,0,0,0,16.7-13,140.73,140.73,0,0,0,20.64-2.55A35.28,35.28,0,0,1,74.41,98.32Z"/><path d="M115,55a1,1,0,0,0,.26,1.39,21.68,21.68,0,0,1,2.33,1.82,1,1,0,0,0,.67.26,1,1,0,0,0,.74-.33,1,1,0,0,0-.07-1.42,24.62,24.62,0,0,0-2.54-2A1,1,0,0,0,115,55Z"/><path d="M110.78,52a.9.9,0,0,0-.54.54.94.94,0,0,0,0,.76,1,1,0,0,0,.21.33,1,1,0,0,0,1.42,0,1,1,0,0,0,.21-.33.94.94,0,0,0,0-.76,1.15,1.15,0,0,0-.21-.33A1,1,0,0,0,110.78,52Z"/><path d="M20.89,95.29a1,1,0,0,0,.7-.3.87.87,0,0,0,.22-.32,1,1,0,0,0,.08-.38,1.09,1.09,0,0,0-.08-.39.87.87,0,0,0-.22-.32,1,1,0,0,0-1.41,0,1,1,0,0,0-.22.32,1,1,0,0,0-.07.39,1,1,0,0,0,.07.38,1,1,0,0,0,.22.32A1,1,0,0,0,20.89,95.29Z"/><path d="M41.44,22.88l-.17-.09-.19-.05a1.05,1.05,0,0,0-.58.05,1,1,0,0,0-.32.22,1.21,1.21,0,0,0-.22.32,1.07,1.07,0,0,0-.07.39,1,1,0,0,0,.29.7,1,1,0,0,0,.32.22,1.07,1.07,0,0,0,.39.07,1,1,0,0,0,1-1,1.09,1.09,0,0,0-.08-.39A1,1,0,0,0,41.6,23Z"/><path d="M28.49,20.28l-.5.07a1,1,0,0,0,.12,2h.12l.52-.06a29.44,29.44,0,0,1,4-.34,1,1,0,1,0,.15-2A27.16,27.16,0,0,0,28.49,20.28Z"/></svg>