<svg id="instagram-logo" xmlns="http://www.w3.org/2000/svg" width="40" height="40" viewBox="0 0 40 40">
  <g id="post-instagram">
    <path id="Pfad_125" data-name="Pfad 125" d="M36,0H4A4.012,4.012,0,0,0,0,4V36a4.012,4.012,0,0,0,4,4H36a4.012,4.012,0,0,0,4-4V4A4.012,4.012,0,0,0,36,0ZM20,12a8,8,0,1,1-8,8A8.024,8.024,0,0,1,20,12ZM5,36a.945.945,0,0,1-1-1V18H8.2A6.8,6.8,0,0,0,8,20a12,12,0,0,0,24,0,6.8,6.8,0,0,0-.2-2H36V35a.945.945,0,0,1-1,1ZM36,9a.945.945,0,0,1-1,1H31a.945.945,0,0,1-1-1V5a.945.945,0,0,1,1-1h4a.945.945,0,0,1,1,1Z"/>
  </g>
</svg>
