<?xml version="1.0" ?><svg data-name="Layer 1" id="Layer_1" viewBox="0 0 128 128" xmlns="http://www.w3.org/2000/svg"><title/><path d="M65.6,81.68l-3.49-1.54A1,1,0,1,0,61.3,82l3.49,1.54a1,1,0,0,0,.41.09,1,1,0,0,0,.4-1.92Z"/><path d="M74.47,88.75,71.41,76.16a.94.94,0,0,1,.22-.85l8.64-9.66a3,3,0,0,0-2-4.9l-12.92-1a.94.94,0,0,1-.75-.46L58.12,48.1a2.94,2.94,0,0,0-5.27.36l-4.93,12a.93.93,0,0,1-.67.56L34.58,63.73a3,3,0,0,0-1.28,5.13l9.87,8.39a1,1,0,0,1,.33.81L42.18,91a3,3,0,0,0,2.93,3.25,3,3,0,0,0,1.55-.44l11-6.8a1,1,0,0,1,.87-.06l11.85,5.24a3,3,0,0,0,4.06-3.39Zm-2.26,1.42a.92.92,0,0,1-1,.14L59.37,85.07a2.93,2.93,0,0,0-2.73.19l-11,6.8a1,1,0,0,1-1.44-.91l1.32-12.88a3,3,0,0,0-1-2.55l-9.87-8.39A.94.94,0,0,1,35,65.69L47.67,63a3,3,0,0,0,2.1-1.76l4.93-12a.94.94,0,0,1,.81-.59h.07a.91.91,0,0,1,.81.47L62.9,60.3a3,3,0,0,0,2.33,1.46l12.91,1a1,1,0,0,1,.64,1.58L70.14,74a2.94,2.94,0,0,0-.67,2.66l3,12.59A.93.93,0,0,1,72.21,90.17Z"/><path d="M19,36l7,5.59a2.35,2.35,0,0,0,1.46.52,2.27,2.27,0,0,0,1-.22,2.32,2.32,0,0,0,1.36-2.07l.21-8.91a.33.33,0,0,1,.15-.28l7.46-4.88a2.34,2.34,0,0,0-.5-4.17l-8.42-3a.37.37,0,0,1-.21-.23L26.07,9.74h0A2.35,2.35,0,0,0,22,8.93L16.54,16a.35.35,0,0,1-.28.14l-8.91-.44a2.34,2.34,0,0,0-2,3.66l5.07,7.34a.36.36,0,0,1,0,.32L7.25,35.37a2.33,2.33,0,0,0,.47,2.43,2.36,2.36,0,0,0,2.39.65l8.54-2.56A.35.35,0,0,1,19,36Zm-9.43.58a.34.34,0,0,1-.34-.09.32.32,0,0,1-.07-.36l3.17-8.33A2.37,2.37,0,0,0,12,25.59L7,18.25a.33.33,0,0,1,0-.36.31.31,0,0,1,.31-.17l8.91.43a2.34,2.34,0,0,0,2-.91l5.41-7.09a.34.34,0,0,1,.6.11l2.34,8.61A2.35,2.35,0,0,0,28,20.47l8.42,3a.32.32,0,0,1,.22.28.34.34,0,0,1-.15.33L29,28.91a2.3,2.3,0,0,0-1.06,1.9l-.21,8.92a.35.35,0,0,1-.2.3.33.33,0,0,1-.36-.05l-6.95-5.59a2.32,2.32,0,0,0-1.46-.51,2.52,2.52,0,0,0-.67.09Z"/><path d="M103.07,51.26a1.91,1.91,0,0,0,1.68,1h.09a1.91,1.91,0,0,0,1.68-1.14l2.42-5.59,6-1.15A1.89,1.89,0,0,0,116.48,43a1.91,1.91,0,0,0-.57-2l-4.56-4,.78-6.11a1.93,1.93,0,0,0-2.88-1.9L104,32.1l-5.56-2.63a1.92,1.92,0,0,0-2,.24,1.89,1.89,0,0,0-.68,1.91l1.32,5.95-4.22,4.48a1.92,1.92,0,0,0,1.21,3.23l6.06.58ZM98.51,38.94A1.91,1.91,0,0,0,99,37.21l-1.27-5.86,5.43,2.56a1.92,1.92,0,0,0,1.79-.08l5.19-3.07-.77,6a2,2,0,0,0,.63,1.68l4.47,4-5.89,1.12a1.89,1.89,0,0,0-1.4,1.11l-2.42,5.49-2.89-5.26a1.94,1.94,0,0,0-1.49-1l-6-.6Z"/><path d="M30.08,98.5l.77-6A1.92,1.92,0,0,0,30,90.64a1.89,1.89,0,0,0-2-.06l-5.16,3L17.34,91a1.92,1.92,0,0,0-2.69,2.14L16,99l-4.16,4.42a1.91,1.91,0,0,0,1.2,3.21l6,.57,2.92,5.32a1.9,1.9,0,0,0,1.67,1h.09a1.88,1.88,0,0,0,1.66-1.13l2.39-5.51,6-1.13a1.91,1.91,0,0,0,.92-3.3Zm-2.76,6.44a1.92,1.92,0,0,0-1.39,1.1l-2.38,5.4-2.83-5.17a1.9,1.9,0,0,0-1.48-1l-5.86-.6,4-4.29a1.92,1.92,0,0,0,.48-1.71l-1.25-5.76L22,95.44a1.93,1.93,0,0,0,1.78-.07l5.1-3-.75,5.9a1.91,1.91,0,0,0,.62,1.67l4.39,3.93Z"/><path d="M120.8,94l-7-.59-3.49-6.09a2.08,2.08,0,0,0-1.91-1,2.05,2.05,0,0,0-1.77,1.26L103.85,94,97,95.45A2.05,2.05,0,0,0,95.41,97,2.08,2.08,0,0,0,96.06,99l5.34,4.62-.75,7a2.07,2.07,0,0,0,.94,2,2.1,2.1,0,0,0,1.11.32,2.05,2.05,0,0,0,1.06-.3l6-3.65,6.4,2.87a2.06,2.06,0,0,0,2.84-2.35l-1.61-6.88,4.71-5.2A2.06,2.06,0,0,0,120.8,94ZM116,101.24a2,2,0,0,0-.47,1.85l1.59,6.88s0,0,0,0l-6.41-2.87a2.06,2.06,0,0,0-1.9.12l-6.08,3.6.75-7a2,2,0,0,0-.7-1.78l-5.3-4.66L104.26,96a2.06,2.06,0,0,0,1.47-1.22l2.8-6.48,3.5,6.08a2.05,2.05,0,0,0,1.61,1l7,.66Z"/><path d="M63,31.76a10.62,10.62,0,0,1,7,7,1,1,0,0,0,1,.7,1,1,0,0,0,1-.7,10.6,10.6,0,0,1,7-7,1,1,0,0,0,.7-1,1,1,0,0,0-.7-.95,10.64,10.64,0,0,1-7-7,1,1,0,0,0-1-.71,1,1,0,0,0-1,.71,10.66,10.66,0,0,1-7,7,1,1,0,0,0-.71.95A1,1,0,0,0,63,31.76Zm8-6.07a12.66,12.66,0,0,0,5.12,5.11A12.62,12.62,0,0,0,71,35.92a12.6,12.6,0,0,0-5.11-5.12A12.64,12.64,0,0,0,71,25.69Z"/><path d="M23.54,70.93a1,1,0,0,0-1-.7,1,1,0,0,0-.95.7,5.33,5.33,0,0,1-3.53,3.53,1,1,0,0,0-.71,1,1,1,0,0,0,.71,1,5.37,5.37,0,0,1,3.53,3.53,1,1,0,0,0,.95.71,1,1,0,0,0,1-.7,5.37,5.37,0,0,1,3.53-3.54,1,1,0,0,0,.7-1,1,1,0,0,0-.7-1A5.33,5.33,0,0,1,23.54,70.93Zm-1,6.4a7.23,7.23,0,0,0-1.91-1.91,7.12,7.12,0,0,0,1.91-1.92,7.3,7.3,0,0,0,1.92,1.92A7.42,7.42,0,0,0,22.58,77.33Z"/><path d="M108.05,12.93a1,1,0,0,0-1-.7,1,1,0,0,0-1,.7,5.84,5.84,0,0,1-3.88,3.88,1,1,0,0,0,0,1.92,5.84,5.84,0,0,1,3.88,3.88,1,1,0,0,0,1,.7,1,1,0,0,0,1-.7,5.88,5.88,0,0,1,3.88-3.88,1,1,0,0,0,0-1.92A5.88,5.88,0,0,1,108.05,12.93Zm-1,7.07a7.77,7.77,0,0,0-2.23-2.23,7.77,7.77,0,0,0,2.23-2.23,7.73,7.73,0,0,0,2.22,2.23A7.73,7.73,0,0,0,107.1,20Z"/><path d="M92.73,78.73a5.5,5.5,0,0,1-3.64-3.64,1,1,0,0,0-1-.7,1,1,0,0,0-1,.7,5.5,5.5,0,0,1-3.64,3.64,1,1,0,0,0-.71,1,1,1,0,0,0,.71,1,5.52,5.52,0,0,1,3.64,3.64,1,1,0,0,0,1,.71,1,1,0,0,0,1-.71,5.52,5.52,0,0,1,3.64-3.64,1,1,0,0,0,.71-1A1,1,0,0,0,92.73,78.73Zm-4.59,3a7.43,7.43,0,0,0-2-2,7.57,7.57,0,0,0,2-2,7.39,7.39,0,0,0,2,2A7.26,7.26,0,0,0,88.14,81.7Z"/><path d="M88.09,115.37A9.17,9.17,0,0,1,82,109.32a1,1,0,0,0-1-.71,1,1,0,0,0-1,.71,9.14,9.14,0,0,1-6.05,6.05,1,1,0,0,0,0,1.91,9.14,9.14,0,0,1,6.05,6,1,1,0,0,0,1,.71,1,1,0,0,0,1-.71,9.17,9.17,0,0,1,6.06-6,1,1,0,0,0,0-1.91Zm-7,5.16a11.1,11.1,0,0,0-4.21-4.2,11.2,11.2,0,0,0,4.21-4.21,11.17,11.17,0,0,0,4.2,4.21A11.07,11.07,0,0,0,81.08,120.53Z"/></svg>